<svg xmlns="http://www.w3.org/2000/svg" width="143.583" height="64.694" viewBox="0 0 143.583 64.694"><g transform="translate(-297.211 -691.205)"><path d="M313.376,716.675h6.7l-11.513,31.293h-6.7L290.35,716.675h6.7l8.161,22.182Z" transform="translate(6.861 -2)" fill="#fff" fill-rule="evenodd"/><path d="M336.7,732.333a16.747,16.747,0,0,0,14.767,16.3l2.26-5.834c-.213.015-.426.022-.642.022a9.275,9.275,0,0,1-6.925-3.048,10.913,10.913,0,0,1,0-14.877,9.343,9.343,0,0,1,11.611-1.759,13.158,13.158,0,0,1,2.806,1.982l2.278-5.88a21.332,21.332,0,0,0-2.921-1.716,15.026,15.026,0,0,0-6.849-1.584,16.7,16.7,0,0,0-16.385,16.4" transform="translate(6.861 -2)" fill="#fff" fill-rule="evenodd"/><path d="M326.3,741.942v-6.935h6.516l2.243-6.026H326.3v-6.265H337.4l2.248-6.041H319.586v31.293H328l2.243-6.026Z" transform="translate(6.861 -2)" fill="#fff" fill-rule="evenodd"/><path d="M364.8,722.716h8.439v25.252H376.9l3.045-8.144V722.716h6.4l2.26-6.041H367.063Z" transform="translate(6.861 -2)" fill="#fff" fill-rule="evenodd"/><path d="M403.965,732.322a10.043,10.043,0,0,1-2.927,7.315,10.027,10.027,0,0,1-14.25,0,10.017,10.017,0,0,1-2.266-3.5l-2.82,7.579.14.138a17.626,17.626,0,0,0,24.142,0,15.973,15.973,0,0,0,0-23.055,16.683,16.683,0,0,0-12.075-4.79q-.987,0-1.93.093l-2.607,7a9.809,9.809,0,0,1,4.537-1.047,9.651,9.651,0,0,1,7.129,2.965,10,10,0,0,1,2.927,7.3" transform="translate(6.861 -2)" fill="#fff" fill-rule="evenodd"/><path d="M408.414,747.968h6.532V737.011h5.81l6.019,10.957h7.158l-6.7-11.851.566-.3a5.836,5.836,0,0,0,1.415-.983,12.609,12.609,0,0,0,1.632-1.721,9.435,9.435,0,0,0,1.385-2.645,10.384,10.384,0,0,0,.588-3.508,9.8,9.8,0,0,0-3.046-7.3,10.537,10.537,0,0,0-7.7-2.98h-2.023l-2.248,6.041h4.055a4.174,4.174,0,0,1,3.047,1.2,4.12,4.12,0,0,1,1.206,3.039,3.844,3.844,0,0,1-1.206,2.868,4.24,4.24,0,0,1-3.047,1.169l-7.134,0Z" transform="translate(6.861 -2)" fill="#fff" fill-rule="evenodd"/><path d="M347.874,757.9l21.169-54.638-3.457-1.339,9.1-8.717.855,12.575-3.691-1.43L351.106,757.9Z" transform="translate(6.861 -2)" fill="#fff" fill-rule="evenodd"/><path d="M433.87,750.569h-4.4v7.237h4.467v-1.1h-3.257V754.6h3.019v-1.065h-3.019v-1.912h3.2Zm-9.584,3.722-2.947-3.743h-.444v7.258H422.1v-4.529l2.1,2.679h.165l2.089-2.679v4.529h1.209v-7.258h-.444Zm-7.92-1.892,1.261,2.894h-2.533Zm1.644,3.908.713,1.5h1.251v-.155l-3.329-7.134h-.558l-3.349,7.134v.155H414l.7-1.5Zm-12.644-2.13a3.548,3.548,0,0,0,3.65,3.722,3.266,3.266,0,0,0,3.215-2.037,4.811,4.811,0,0,0,.258-1.964H409.1v1.023h2.254a2.054,2.054,0,0,1-2.336,1.882,2.628,2.628,0,0,1,0-5.241,2.066,2.066,0,0,1,2.067,1.178h1.189a3.125,3.125,0,0,0-3.246-2.264A3.561,3.561,0,0,0,405.366,754.177Z" transform="translate(6.861 -2)" fill="#fff"/></g></svg>