<svg xmlns="http://www.w3.org/2000/svg" width="327.825" height="214.546" viewBox="0 0 327.825 214.546"><g transform="translate(-630.287 -131.004)"><path d="M740.233,315.8a15.929,15.929,0,0,0,3.772-2.36,40.726,40.726,0,0,0,4.4-4.022,19.438,19.438,0,0,0,3.773-6.311,23.652,23.652,0,0,0,1.574-8.618,22,22,0,0,0-6.866-16.448q-6.865-6.651-17.288-6.652H697.967V346.5h11.782V317.532H726.93L743,346.5h12.89l-17.182-30.018Zm-10.638-9.01H709.749V282.115h19.846a12.337,12.337,0,1,1,0,24.673Z" transform="translate(6.861 -2)" fill="#fff" fill-rule="evenodd"/><path d="M675.435,325.6l-41.853-54.208H623.427V346.5h11.782V292.341L677.062,346.5h10.155V271.387H675.435Z" transform="translate(6.861 -2)" fill="#fff" fill-rule="evenodd"/><path d="M803.544,317.532h14.519v11.782l-.788.788a18.222,18.222,0,0,1-2.431,1.858,38.834,38.834,0,0,1-3.969,2.252,24.5,24.5,0,0,1-5.774,1.878,34.385,34.385,0,0,1-7.421.769,27.89,27.89,0,1,1,0-55.78,27.845,27.845,0,0,1,8.35,1.233,30.976,30.976,0,0,1,6.418,2.663,26.6,26.6,0,0,1,4.613,3.434,31.393,31.393,0,0,1,2.753,2.752q.591.751.913,1.18l7.49-7.544-1.144-1.466a25.846,25.846,0,0,0-3.772-3.611,59.994,59.994,0,0,0-6.007-4.256,27.5,27.5,0,0,0-4.218-2.117c.03-.309.05-.644.05-1.039,0-3.58-7.756-1.482-7.756-8.164,0-3.3-1.793-16.828-.035-18.02,3.3-2.232.2-8.413-.817-11.01-.879-2.236-2.057-11.077-2.3-11.553-1.5-2.937-1.064-4.682-1.474-5.577,0-1.689-1.014-8.075-1.8-9.081-1.142-1.457-1.484-17.691-.929-20.049.241-1.021.655-5.666.728-5.84,2.361-5.739,1.167-12.108,1.19-18.232.022-.136.213-3.8.2-4.015-.113-2.428.749-5.347.749-7.353,0-2.687-.806-12.142,1.275-13.834,2.33-1.893.753-4.566-1.381-5.1-.331-.081-.87.3-1.188.3-1.37,0-1.131-.7-1.558-1.2-.088-.1-.188-.4-.4-.5a.546.546,0,0,0-.83.519c0,.838.619,1.506.842,2.513a14.147,14.147,0,0,1,.16,6.343c-.76,2.558-.526,5-.526,7.711,0,2.782-.463,2.74-.613,4.416,0,1.221-.286,4.3-.271,4.832.163,6.1-2.9,10.214-3.006,11.5-.222,2.777-2.724-.173-3.662-.136-2.9.114-2.371-2.608-.746-3.935,2.517-2.053-1.314-7.3-1.318-7.334-.9-.187-4.294-5.552-8.934,1.732-1.576,2.476.434,5.677,1.835,7.667,3.612,5.135-3.353,5.085-5.148,7.176-.075.091-2.144,2.215-2.211,2.279-.386.37-.906,5.722-.893,6.091,0,2.026-.476,4.746-.476,7.008,0,4.136-2.38,7.236-3.514,11.269-1.232,4.379.6,6.293-2.062,11.046-1.026,3.165-1.021,1.311-1.021,4.842,0,4.234.94,5.191,2.151,5.335,1.339.16,1.324-.2.995-1.4a8.553,8.553,0,0,1-.28-1.241,11.529,11.529,0,0,1,.307-3.5c.29-1.436.644-3.193.637-3.279.892-2.769-.57-1.081,1.722-4.633,2.179-3.376,4.712-9.054,4.869-13.05a50.143,50.143,0,0,1,2.523-6.549c.749.345,2.066,3.916,2.041,5.138-.133,6.6.2,4.4-2.971,10.149-1.891,3.435-.357,8.128-.708,11.983a71.59,71.59,0,0,1-1,9c-.56,2.593,1.489,2.281.5,4.948-1.447,3.9-1.276,10.864-1.3,10.905-2.836,6.429-.917,14.372-.917,21.342,0,2.464-2.291,11.317-.626,14.523a40.93,40.93,0,0,0-3.78,3.274,38.566,38.566,0,0,0,0,54.8q11.424,11.209,28.283,11.21a44.206,44.206,0,0,0,11.55-1.5,45.12,45.12,0,0,0,9.01-3.289,39.659,39.659,0,0,0,6.437-4.256,38.966,38.966,0,0,0,3.881-3.4q.857-.966,1.286-1.5V306.788h-26.3Zm-26.115-47.5c-1.076-2.732,1.084-14.211,1.727-17.474.111-.564,4.017-1.721,4.307-1.78-.293-3.746,2.558-10.617,2.45-12.826-.179-3.65,1.113-6.851,1.632-9.614.8-4.25,4.285-4.222,5.94.16,1.631,4.311,3.324,9.387,3.177,14.217-.226,7.378,5.836,20.939,4.887,26.556a6.222,6.222,0,0,1-.352,1.231c-1.158-.1-2.327-.165-3.517-.165a40.667,40.667,0,0,0-18.159,3.992C778.989,273.167,778.123,271.788,777.429,270.028Z" transform="translate(6.861 -2)" fill="#fff" fill-rule="evenodd"/><path d="M885.321,291.939l3.956-12.413,3.959,12.413h3.7L903,273.454h-4.228l-3.828,12.673-3.828-12.673h-3.687L883.6,286.126l-3.827-12.673h-4.229l6.071,18.485Z" transform="translate(6.861 -2)" fill="#fff" fill-rule="evenodd"/><path d="M874.59,288.379h-9.9v-4.1h7.515v-3.56H864.69v-3.7h9.632v-3.569h-13.6v18.485H874.59Z" transform="translate(6.861 -2)" fill="#fff" fill-rule="evenodd"/><path d="M844.319,311.513h3.432l3.555,6.472h4.228l-3.955-7,.334-.18a3.453,3.453,0,0,0,.837-.581,7.443,7.443,0,0,0,.963-1.016,5.547,5.547,0,0,0,.819-1.562,6.131,6.131,0,0,0,.347-2.073,5.788,5.788,0,0,0-1.8-4.312,6.228,6.228,0,0,0-4.545-1.76h-8.183v18.485h3.968Zm0-8.444h4.088a2.458,2.458,0,0,1,1.8.709,2.432,2.432,0,0,1,.714,1.794,2.275,2.275,0,0,1-.714,1.7,2.5,2.5,0,0,1-1.8.69h-4.088Z" transform="translate(6.861 -2)" fill="#fff" fill-rule="evenodd"/><path d="M879.909,314.945a5.325,5.325,0,0,1-2.372-.555,6.205,6.205,0,0,1-1.465-.884c-.22-.22-.387-.4-.511-.537l-2.384,2.371.3.326a5.4,5.4,0,0,0,.849.761,12.576,12.576,0,0,0,1.372.889,8.68,8.68,0,0,0,1.985.753,9.788,9.788,0,0,0,2.494.316,7.576,7.576,0,0,0,5.14-1.623,5.311,5.311,0,0,0,1.861-4.189,4.679,4.679,0,0,0-.942-3.006,5.278,5.278,0,0,0-2.288-1.7q-1.345-.516-2.68-.9a9.6,9.6,0,0,1-2.27-.946,1.693,1.693,0,0,1-.933-1.492,1.776,1.776,0,0,1,.687-1.4,2.743,2.743,0,0,1,1.826-.58,4.063,4.063,0,0,1,1.831.439,4.99,4.99,0,0,1,1.165.7,5.269,5.269,0,0,1,.432.444l2.371-2.517-.228-.255a3.979,3.979,0,0,0-.731-.638,9.186,9.186,0,0,0-1.184-.722,7.909,7.909,0,0,0-1.734-.62,9.051,9.051,0,0,0-2.191-.264,6.81,6.81,0,0,0-4.673,1.584,4.932,4.932,0,0,0-1.8,3.828,4.673,4.673,0,0,0,.942,3.006,5.3,5.3,0,0,0,2.274,1.7c.889.343,1.783.643,2.68.893a9.334,9.334,0,0,1,2.283.951,1.7,1.7,0,0,1,.933,1.5,2.108,2.108,0,0,1-.8,1.7A3.384,3.384,0,0,1,879.909,314.945Z" transform="translate(6.861 -2)" fill="#fff" fill-rule="evenodd"/><path d="M844.319,280.195l9.1,11.744h3.427V273.454h-3.956v11.757l-9.1-11.757h-3.44v18.485h3.968Z" transform="translate(6.861 -2)" fill="#fff" fill-rule="evenodd"/><path d="M922.112,314.425h-8.575V299.5h-3.968v18.485h12.544Z" transform="translate(6.861 -2)" fill="#fff" fill-rule="evenodd"/><path d="M922.424,303.069h5.284v14.916h3.96V303.069h5.272V299.5H922.424Z" transform="translate(6.861 -2)" fill="#fff" fill-rule="evenodd"/><path d="M928.052,325.546h-7.788v18.485h3.968v-6.073h3.82a6.565,6.565,0,0,0,4.73-1.786,6.147,6.147,0,0,0-.009-8.839A6.57,6.57,0,0,0,928.052,325.546Zm1.848,8.083a2.753,2.753,0,0,1-1.98.762h-3.688v-5.276h3.688a2.722,2.722,0,0,1,1.98.77,2.608,2.608,0,0,1,0,3.744Z" transform="translate(6.861 -2)" fill="#fff" fill-rule="evenodd"/><path d="M950.311,309.567a5.275,5.275,0,0,0-2.289-1.7q-1.345-.516-2.679-.9a9.582,9.582,0,0,1-2.27-.946,1.691,1.691,0,0,1-.933-1.492,1.774,1.774,0,0,1,.686-1.4,2.747,2.747,0,0,1,1.827-.58,4.062,4.062,0,0,1,1.83.439,4.991,4.991,0,0,1,1.165.7,5.278,5.278,0,0,1,.432.444l2.371-2.517-.228-.255a3.916,3.916,0,0,0-.731-.638,9.17,9.17,0,0,0-1.183-.722,7.92,7.92,0,0,0-1.735-.62,9.042,9.042,0,0,0-2.19-.264,6.808,6.808,0,0,0-4.673,1.584,4.93,4.93,0,0,0-1.8,3.828,4.679,4.679,0,0,0,.942,3.006,5.3,5.3,0,0,0,2.275,1.7c.888.343,1.782.643,2.679.893a9.343,9.343,0,0,1,2.284.951,1.7,1.7,0,0,1,.933,1.5,2.109,2.109,0,0,1-.8,1.7,3.381,3.381,0,0,1-2.235.674,5.322,5.322,0,0,1-2.372-.555,6.162,6.162,0,0,1-1.465-.884c-.22-.22-.388-.4-.511-.537l-2.385,2.371.3.326a5.393,5.393,0,0,0,.849.761,12.569,12.569,0,0,0,1.372.889,8.679,8.679,0,0,0,1.985.753,9.8,9.8,0,0,0,2.495.316,7.571,7.571,0,0,0,5.139-1.623,5.311,5.311,0,0,0,1.861-4.189A4.678,4.678,0,0,0,950.311,309.567Z" transform="translate(6.861 -2)" fill="#fff" fill-rule="evenodd"/><path d="M912.565,336.5a4.308,4.308,0,0,1-1.2,3.107,3.963,3.963,0,0,1-5.781,0,4.309,4.309,0,0,1-1.206-3.1V325.546H900.42V336.5a7.647,7.647,0,0,0,2.293,5.654,8.418,8.418,0,0,0,11.511,0,7.642,7.642,0,0,0,2.3-5.654V325.546h-3.955Z" transform="translate(6.861 -2)" fill="#fff" fill-rule="evenodd"/><path d="M872.411,336.85a3.435,3.435,0,0,0,.837-.581,7.378,7.378,0,0,0,.963-1.016,5.567,5.567,0,0,0,.82-1.563,6.145,6.145,0,0,0,.346-2.071,5.788,5.788,0,0,0-1.8-4.313,6.232,6.232,0,0,0-4.546-1.76h-8.183v18.485h3.968v-6.472h3.433l3.554,6.472h4.229l-3.956-7Zm-1.707-3.537a2.5,2.5,0,0,1-1.8.69h-4.088v-4.888h4.088a2.456,2.456,0,0,1,1.8.709,2.429,2.429,0,0,1,.714,1.795A2.271,2.271,0,0,1,870.7,333.313Z" transform="translate(6.861 -2)" fill="#fff" fill-rule="evenodd"/><path d="M872.09,314.425h-9.9v-4.1h7.515V306.77h-7.515v-3.7h9.632V299.5h-13.6v18.485H872.09Z" transform="translate(6.861 -2)" fill="#fff" fill-rule="evenodd"/><path d="M850.122,336.9h3.3v2.512l-.4.335a4.544,4.544,0,0,1-1.431.744,6.686,6.686,0,0,1-2.257.365,6.071,6.071,0,1,1,0-12.14,6.09,6.09,0,0,1,1.844.286,6.635,6.635,0,0,1,1.456.634,6.116,6.116,0,0,1,1.026.792,6.9,6.9,0,0,1,.607.638c.088.127.158.22.211.29l2.512-2.513-.294-.388a6.2,6.2,0,0,0-.933-.914,15.415,15.415,0,0,0-1.5-1.083,8.425,8.425,0,0,0-2.161-.924,10.049,10.049,0,0,0-2.772-.378,9.861,9.861,0,0,0-7.137,2.824,9.436,9.436,0,0,0,0,13.619,9.853,9.853,0,0,0,7.137,2.829,10.492,10.492,0,0,0,2.856-.387,10.975,10.975,0,0,0,2.244-.857,11.141,11.141,0,0,0,1.624-1.083,10.3,10.3,0,0,0,.99-.862c.153-.168.264-.3.329-.383V334h-7.256Z" transform="translate(6.861 -2)" fill="#fff" fill-rule="evenodd"/><path d="M887.7,325.159a9.856,9.856,0,0,0-7.132,2.824,9.433,9.433,0,0,0,0,13.619,10.4,10.4,0,0,0,14.26,0,9.436,9.436,0,0,0,0-13.619A9.855,9.855,0,0,0,887.7,325.159Zm4.206,13.948a5.931,5.931,0,0,1-8.417,0,6.253,6.253,0,0,1,0-8.633,5.923,5.923,0,0,1,8.417,0,6.25,6.25,0,0,1,0,8.633Z" transform="translate(6.861 -2)" fill="#fff" fill-rule="evenodd"/><path d="M905.824,310.456V299.5h-3.955v10.956a4.309,4.309,0,0,1-1.2,3.107,3.963,3.963,0,0,1-5.781,0,4.311,4.311,0,0,1-1.206-3.1V299.5h-3.956v10.956a7.649,7.649,0,0,0,2.293,5.654,8.418,8.418,0,0,0,11.511,0A7.644,7.644,0,0,0,905.824,310.456Z" transform="translate(6.861 -2)" fill="#fff" fill-rule="evenodd"/></g></svg>