<svg xmlns="http://www.w3.org/2000/svg" width="215.282" height="228.001" viewBox="0 0 215.282 228.001"><path d="M847.167,2523.916a6.929,6.929,0,0,0-.2,2.635c-1.229-.308-2.529-.669-3.76-.977,1.187-.487,2.5-.961,3.956-1.658m-28.593,36.373-7.113-16.927-7.292,16.927Zm120.319,0-7.113-16.927-7.291,16.927Zm-15.141-24.377h-9.631c-2.51,0-5.36-.021-5.888,3.176a22.251,22.251,0,0,0-.127,3.114v26.961a13.91,13.91,0,0,0,.4,4.189,2.635,2.635,0,0,0,1.277,1.331,4.262,4.262,0,0,0,4.9-.465q1.551-1.456,3.493-6.015l10.319-24.109.073-.172c1.249-2.991,1.619-5.882-.961-7.318A6.631,6.631,0,0,0,923.752,2535.912ZM881.9,2584.175h-1.418l.7-1.631Zm.877,2.136h1.551v-.231l-2.8-6.053h-.682l-2.792,6.053v.231H879.6l.364-.781h2.446Zm-6.673-6.2h-1.622v2.25h-1.914v-2.25h-1.622v6.2h1.622v-2.491h1.914v2.491H876.1Zm-10.9-1.941c-.311.018-.612.053-.913.088a1.547,1.547,0,0,0,3.093,0c-.3-.035-.6-.07-.913-.088-.053.372-.292.487-.656.487S865.226,2578.494,865.2,2578.166Zm-1.7,8.145h-.567v-6.2h1.622v3.035l3.137-3.061h.577v6.23h-1.64v-3.049Zm-5.006-2.136h-1.418l.7-1.631Zm.877,2.136h1.551v-.231l-2.8-6.053h-.682l-2.792,6.053v.231H856.2l.364-.781h2.446Zm-9.207-4.636c0-.23.2-.363.549-.363a.537.537,0,1,1-.017,1.072h-.417v1.295h.434a.71.71,0,1,1,0,1.409.745.745,0,0,1-.78-.8h-1.391a1.96,1.96,0,0,0,2.171,2.136c1.6,0,2.393-.851,2.393-1.95a1.581,1.581,0,0,0-.9-1.533,1.471,1.471,0,0,0,.541-1.148A1.846,1.846,0,0,0,850.71,2580c-1.081,0-2.012.532-1.958,1.675Zm-5.547,1.587v3.049h1.639v-6.23h-.576l-3.138,3.061v-3.035h-1.621v6.2h.567Zm-9.837-1.71h.753c1.976,0,1.976,3.314,0,3.314h-.753Zm.753-1.445h-2.34v6.2h2.34C839.571,2586.293,839.571,2580.125,835.53,2580.107Zm-1.447,67.729q1.245-2.142,2.538-4.7t2.412-5.1q1.119-2.538,2.037-4.837t1.41-3.975q-2.349,2.541-4.637,5.25a59.7,59.7,0,0,0-4.216,5.633,46.35,46.35,0,0,0-3.416,6.137,33.907,33.907,0,0,0-2.289,6.772q-.324,1.295.234,1.331a2.528,2.528,0,0,0,1.536-.82,18.282,18.282,0,0,0,2.176-2.366A25.162,25.162,0,0,0,834.083,2647.836Zm31.146-38.319a84.319,84.319,0,0,0-14.369,11.413q-.48,2.2-1.191,5.988t-1.761,8.148q-1.052,4.365-2.537,8.885a48.615,48.615,0,0,1-3.547,8.262,24.811,24.811,0,0,1-4.789,6.281,10.442,10.442,0,0,1-6.239,2.874,4.132,4.132,0,0,1-1.679-.376,7.49,7.49,0,0,1-2.436-1.569,8.244,8.244,0,0,1-2-3.028,9.051,9.051,0,0,1-.307-4.818,24.12,24.12,0,0,1,2.033-6.379,51.61,51.61,0,0,1,3.558-6.337q2.043-3.117,4.385-6.013t4.575-5.418q1.313-1.557,2.659-3.031t2.779-2.989q.425-2.139.788-4.327c.672-4.048,1.091-8.065,1.5-12.143q-.059.068-.681,1.049a40.871,40.871,0,0,1-6.857,8.3,13.187,13.187,0,0,1-3.122,2.031,4.536,4.536,0,0,1-3.217.424c-1.739-.523-2.686-2.481-3.087-4.746-.733-3.784-.016-7.89,1.078-11.54a10.221,10.221,0,0,1,1.961-4.063c.741-.712,2.56-.929,4.258-.754a7.713,7.713,0,0,1,2.58.671c1.955,1,.475,3.041-.062,4.544-.714,2-2.13,5.931-2.09,7.841.04,1.881,1.7.308,2.3-.3a55.884,55.884,0,0,0,6.015-8.055,35.309,35.309,0,0,0,2.31-4.747c.555-1.527,1.674-2.144,2.649-1.913,1.113.265,1.652,1.568,1.9,3.049a19.361,19.361,0,0,1,.112,4.318q-.206,2.67-.442,5.375-.133,2.036-.294,4.106t-.352,4.114q1.668-1.432,3.31-2.77t3.371-2.72c1.355-.973,5.491-4.736,6.9-3.607C866.013,2606.209,866.073,2609,865.229,2609.517Zm9.256,12.466a102.727,102.727,0,0,0-10.2,13.38,55.78,55.78,0,0,0-2.907,5.172,17.068,17.068,0,0,0-1.505,4.181q-.334,1.785.666,2.343a1.575,1.575,0,0,0,1.773-.15C869.061,2642.6,872.933,2629.334,874.485,2621.983Zm25.655-12.838a18.694,18.694,0,0,0-2.9,2.533c-.732.924.087,1.426,1.024.667A6.465,6.465,0,0,0,900.14,2609.145Zm40.6-8.8c-6.724,6.12-17.9,13.125-23.872,14.137-6.73,1.141-6.314-8.04-6.1-12.463-1.167.758-2.546,1.681-4,2.675a20.337,20.337,0,0,1-1.975,7.11c-1.466,2.864-3.756,5.73-6.566,5.544-2.452-.162-3.846-1.551-4.1-3.479-.641-4.9,5.163-7.8,8.573-10.274-.057-2.571-1.7-3.89-4.109-2.574a8.592,8.592,0,0,0-3.165,3.608c-1.584,2.965-2.545,8.249-2.608,11.562-.043,2.3-3.5,2.261-4.573.491-.806-1.337-.679-5.031-.288-8.805a47.072,47.072,0,0,0-6.954,7.591c1.063,10.692-3.084,31.877-14.484,37.956a9.293,9.293,0,0,1-3.521,1.3,5.331,5.331,0,0,1-4.075-1,7.224,7.224,0,0,1-2.269-3.546,11.9,11.9,0,0,1-.508-5.975,21.474,21.474,0,0,1,2.025-6.047c3.423-6.826,11.69-16.47,16.852-22.028.653-3.531-1.479-5.666-3.8-6.047-1.526-.251-3.689.113-3.887-2.916-.047-.728-.058-1.447,1.63-2.24a20.692,20.692,0,0,0,6.738-5.289c1.374-1.739,2.041-3.724,1.538-4.845-1.171-2.613-7.345,1.256-8.931,2.288-1.656,1.078-2.446.795-2.3-2.032.07-1.417.043-2.736,2.206-3.836a31.382,31.382,0,0,1,5.39-2.181c2.192-.626,4.438-.875,6.071-.112,3.008,1.407,3.7,5.5,1.821,9.956a15,15,0,0,1-7.059,7.3,7.65,7.65,0,0,1,5.781,4.678c2.989-2.946,5.209-5.529,8.381-8,.314-4.035.75-8.415,1.452-13.216.462-2.547,1.436-3,3.141-3.33,3.924-.752,5.1-.294,3.966,5.207-.253,1.227-.691,3.8-.931,4.909,5.017-2.495,9.115-.694,10.288,4.507,1.486-.874,3.085-1.878,4.543-2.835.457-4.7.918-7.156,1.623-11.14.631-3.573.378-4.555,4.444-5.207,4.029-.647,3.865.2,3.262,4.559-.822,5.936-3.874,15.2-3.071,19.875.29,1.684,1.2,2.452,3.154,1.726,5.247-1.95,16.473-13.508,20.379-17.688,3.784-4.049,4.449-.735,4.03,2.571C944.433,2596.285,943.357,2597.963,940.74,2600.346Zm-119.79-34.189-1.511-3.59h-16.23l-2.85,6.6a10.494,10.494,0,0,0-1.044,3.641c0,1.519,1.614,2.4,4.854,2.617v1.2h-10.4c.474,3.054.944,8.332,1.081,10.141q.234,3.116.318,6.6t-.005,7q-.087,3.51-.323,6.835t-.639,6.083a126.68,126.68,0,0,0,6.549-10.9q3.039-5.674,5.615-11.626t4.665-11.974q2.09-6.019,3.638-11.856.111-.5,1.268-.775a10.447,10.447,0,0,1,2.71-.224A17.5,17.5,0,0,1,820.95,2566.157Zm41.556-21.215-.453-.817.453-.552Zm2.659,16.4.048.038c2.386,1.91,2.7,5.451,5.839,6.413,1.042.376,2.63.513,3.031-.469.22-.544.18-.933-.446-1.006-.441-.05-.33.186-1.846-1.537-1.242-1.41-1.62-3.534-2.092-5.322-.642-2.418-1.977-3.693-2.934-5.877-.545-1.244-1.075-2.4-1.6-3.489v-9.836a19.23,19.23,0,0,1,2.439-2.532c2.056-1.657,5.088-2.417,7.483-1.077a2.629,2.629,0,0,1,1.277,1.33,14.085,14.085,0,0,1,.4,4.222v26.961c0,2.533-.243,4.116-.739,4.75a4.528,4.528,0,0,1-3.789,1.508h-2.576a4.313,4.313,0,0,1-3.809-1.6c-.454-.654-.687-2.153-.687-4.495Zm-16.6-26.578c.608,2.141,2.331,4.1,2.1,7.651-.081,1.28-.737,1.144-1.493,1.844-1.87,1.735-.955,2.669.124,4.477a5.025,5.025,0,0,1,.452.984l-13.4,16.423v-24.123c0-2.575.284-4.178.866-4.812a4.607,4.607,0,0,1,3.629-1.3h1.457v-.539C844.791,2535.184,846.979,2534.951,848.567,2534.766Zm-39.191-24.791c-1.649.085-3.38.123-5.155.1q-1.16-.013-2.285-.072c-3.5,2.914-5.638,6.843-7.677,10.594-2.908,5.351-5.66,10.411-10.422,12.925.51-.041,1.057-.1,1.641-.171,5.493-.692,12.474-3.9,19.467-9.391q1.257-.987,2.508-2.072c.148-.813.288-1.6.41-2.314.426-2.471.46-4.654,1.017-7.272C809.035,2511.582,809.2,2510.795,809.376,2509.975Zm9.975-1.269c-.8.185-1.673.357-2.6.51-.373,1.63-.711,3.16-.925,4.086Q817.638,2511.114,819.351,2508.706Zm-1.9-2.481q1.652.238,3.343.37l.345-.553-.116-.312c-.747-.06-2.085-.11-3.413-.144Zm1.114-3.787h0Zm-32.058-27.544a49.072,49.072,0,0,0,2.045,9.3,29.856,29.856,0,0,0,12.2,15.969,36.632,36.632,0,0,0,7.675,3.831q1.023-.376,2.137-.669a21.956,21.956,0,0,0,.2-3.185c-3.158,3.181-7.515.262-7.715.139,4.373-.724,7.615-4.925,9.936-10.856-6.408-7.621-14.862-10.524-22.723-13.221C789,2475.764,787.744,2475.333,786.511,2474.894Zm20.616,29.623a38.764,38.764,0,0,1-7.743-3.916,30.771,30.771,0,0,1-12.59-16.422,49.443,49.443,0,0,1-2.128-9.959c-7.843-2.935-14.593-6.55-17.97-14.606a45.615,45.615,0,0,0-.614,7.009,46.879,46.879,0,0,0,2.749,16.407,39.777,39.777,0,0,0,8.93,14.39c5.648,5.749,13.411,9.869,23.477,10.984A21.315,21.315,0,0,1,807.127,2504.517Zm3.013,1.561a19.35,19.35,0,0,0-6.306,2.544q1.182.067,2.4.081c1.165.013,2.3,0,3.41-.038C809.82,2507.812,809.988,2506.94,810.14,2506.078Zm9.918,1.319q-1.416-.127-2.807-.328l-.222.942A25.888,25.888,0,0,0,820.058,2507.4Zm-33.73-34.33c1.005.359,2.027.709,3.06,1.064,8.353,2.866,17.3,5.936,24.331,13.282a65.574,65.574,0,0,0,2.116-8.109c-3.451-4.506-7.774-8.212-11.808-11.67-7.539-6.462-14.085-12.076-12.236-20.55a41.48,41.48,0,0,0-3.216,7.209A46.949,46.949,0,0,0,786.328,2473.067Zm-5.1,61.642c-3.484-.242-7-1.217-8.317-3.941a5.022,5.022,0,0,1-.394-2.937,5.554,5.554,0,0,1,1.259-2.858,3.138,3.138,0,0,1,2.148-.072c.947.206,1.522.575,1.283.821a5.184,5.184,0,0,0-1.157,2.664c-.908,6.073,5.542,4.025,8.725,2.235,3.613-2.034,5.69-5.853,7.881-9.884,2.039-3.753,4.159-7.652,7.133-10.883-11.051-1.012-19.431-5.322-25.4-11.4a40.206,40.206,0,0,1-9.025-14.538,47.229,47.229,0,0,1-2.779-16.526c.106-9.317,2.651-18.751,9.453-25.434a4.359,4.359,0,0,1,2.285-.8c.883-.072,1.293.172.914.545a29.939,29.939,0,0,0-7.314,12.666,28.22,28.22,0,0,0,1,4.108c2.586,7.934,8.553,11.277,15.581,13.927a47.292,47.292,0,0,1,2.31-18.391c3.24-9.581,9.493-17.188,17.242-20.546a1.636,1.636,0,0,1,1.26.087c.359.193.376.468.039.613a27.078,27.078,0,0,0-9.767,7.461c-5.6,10.466,1.729,16.748,10.406,24.187a89.129,89.129,0,0,1,10.78,10.363c3.061-7.665,6.887-14.1,17.284-6.882a2.942,2.942,0,0,1,1.186,1.458,2.8,2.8,0,0,1-.406,2.244,2.284,2.284,0,0,0-.2.648,11.755,11.755,0,0,1-.24,2.733c-.085.383-.386,1.351-.4,1.5a.77.77,0,0,0,.823.109c.09-.033.145-.012.119.033-.185.326-.752.328-.976.281a11.414,11.414,0,0,0,1.24,2.2c.135.192.3.3.2.577-.133.388-.7.56-1.05.553-.064.514-.188.477.105.818.359.428-.22.992-1.022.908a.369.369,0,0,0,.165.235.661.661,0,0,1,.283.448c.064.5-.582.4-.82.623a.655.655,0,0,0-.213.468c0,.165.167.323.155.63a1.111,1.111,0,0,1-.959,1.1,7.158,7.158,0,0,1-2.666-.47c-.883-.191-1.662-.226-1.909.86a3.057,3.057,0,0,0,.274,1.761c.26.524.795.694,1.227.961a6.052,6.052,0,0,1,1.995,2.4,26.456,26.456,0,0,0,4.2,4.584c1.815,1.684,2.2,4.258.208,5.921l2.321,2.628c.753-.42,1.514-.979,2.389-1.422,2.623-1.331,4.905-2.06,8.015-3.645.864-.44,1.831-.851,2.567-1.318,2.285-1.45,3.15-1.5,4.371-1.392.9.081,2.04.335,2.819.369.691.032,3.575.477,1.3,1.13a7.976,7.976,0,0,1-2.609-.1c.993,1.425,3.887.654,5.2.283a6.354,6.354,0,0,1,1.95-.321c1.2.051,1.239.621.014.927a9.8,9.8,0,0,0-1.065.276,17.348,17.348,0,0,0-1.832.873c-4.829,2.272-7.368-2.381-12.975,1.886-2.652,2.018-6.665,5.5-9.441,6.952-1.742.916-2.237.869-2.991.306-.215-.159-1.514-1.179-1.521-1.128-.664,4.752.4,6.273-.321,10.456,3.315-1.085,8.145-4.026,15.483-5.764,3.506-.545,5.29,1.911,5.251,5.225-.039,3.416-.169,6.884-.245,10.311-.04,1.692.376,2.041,1.551,3.884.68,1.07,1.38,2.107,2.025,3.216l1.2,2.059,3.152-3.864h26.731v1.2H887.2a6.037,6.037,0,0,0-2.785.675,3.207,3.207,0,0,0-1.636,2.5,22.891,22.891,0,0,0-.127,3.1v11.956h19.564V2542.19a13.974,13.974,0,0,0-.4-4.21c-.558-1.383-1.931-2.068-4.125-2.068H896.2v-1.2h38.2l14.2,33.863a18.874,18.874,0,0,0,2.533,4.718,6.372,6.372,0,0,0,4.664,2.131v1.2H939.261v-1.2c2.84-.148,4.264-.992,4.264-2.554a12.726,12.726,0,0,0-1.235-4.284l-2.532-6.016h-16.23l-2.849,6.6a10.478,10.478,0,0,0-1.045,3.641c0,1.519,1.615,2.4,4.855,2.617v1.2H896.2v-1.2h1.488a4.491,4.491,0,0,0,3.757-1.508c.517-.666.769-2.249.769-4.75v-12.737H882.653v12.737a13.881,13.881,0,0,0,.4,4.189c.569,1.383,1.952,2.069,4.146,2.069h1.53v1.2H856.555v-1.2h1.488a4.613,4.613,0,0,0,3.63-1.3c.559-.612.833-2.216.833-4.8v-9.78c-1.221-.722-2-1.153-2.384-2.218a2.929,2.929,0,0,1,.412-2.033c1.239-1.819,2.38-2.033.576-4.333a20.283,20.283,0,0,0-1.9-2.153c-.129-.116-.331-.292-.581-.5l-4.551,5.548a32.791,32.791,0,0,0,.275,4.424c.005.649.046.795-.133.909-.391.246-1.277-.32-1.928-.842a5.749,5.749,0,0,1-.924-1.189l-15.977,19.474h-8.66q.286,3.5.313,7.81.027,4.358-.109,8.915t-.378,9.026q-.243,4.466-.592,8.256t-.75,6.586a30.4,30.4,0,0,1-.753,3.954,3.575,3.575,0,0,1-1.614,2.037c-2.933,1.784-8.682,1.482-11.139-.825a1.659,1.659,0,0,1-.572-1.683q.493-2.357,1.029-5.864t1.049-7.46q.512-3.953.942-8.137t.714-7.9q.285-3.713.366-6.7a29.288,29.288,0,0,0-.141-4.55q-1.1,2.654-2.505,5.977t-3.039,6.955q-1.632,3.633-3.433,7.325t-3.717,7.159q-1.916,3.467-3.927,6.462c-1.6,2.385-3.605,5.955-6.729,6.193-2.655.2-6-1.03-7.173-2.632q.113-1.746.077-5t-.1-7.015c-.107-6.316-.94-18.051-.918-17.646-5.474,17.987-17.253,37.314-30.276,52.287-2.539,1.7-11.21,1.564-12.838-2.459,14.713-8.578,35.249-42.952,40.445-61.076H770.253v-1.2h1.509a4.359,4.359,0,0,0,3.819-1.6c.454-.665.687-2.163.687-4.516v-32h-5.055a13.953,13.953,0,0,0-4.179.433c-2.48.886-3.863,3.154-4.126,6.784h-1.193l.5-9.813Zm25.434-8.682c-6.648,4.878-13.334,7.756-18.809,8.447-.708.089-1.577.177-2.536.235h11.791c-.982,0,1.145-1.817,4.564-2.2,3.192-.351,3.449-.78,4.284-3.316C806.091,2528.8,806.357,2527.571,806.666,2526.027Zm15.307-15.433a75.81,75.81,0,0,1-9.026,10.193c-.434.693-.884,1.388-1.323,2.109-2.469,4.048-2.63,7.624-3.144,9.795a2.788,2.788,0,0,1-1.571,2.018h7.177l14.2,33.863a18.912,18.912,0,0,0,2.532,4.718,5.864,5.864,0,0,0,2.883,1.831v-33.1c0-2.343-.232-3.841-.685-4.506a4.279,4.279,0,0,0-3.778-1.6h-1.488v-.5a18.386,18.386,0,0,1-7.548-2.12c-3.045-1.944-4.376-6.465-.526-12.316C821.31,2518.48,822.156,2514.374,821.973,2510.594Zm37.61-16.313.96-2.355,4.251-4.1-2.1,3.217Zm7.49-11.354,0,1.641h1.482Zm-2.7,6.82,2.7-4.354h1.482Zm-3.288.843,2.134-5.2h2.859Zm-.826,0-1.08-5.2h3.134Zm2-8.3-2.052-.711h3.147Zm.856.666,2.658,1.61h-2.658Zm-.646.01-2.383,1.6h2.383Zm2.067-1.387,1.893.728.014,1.983-3.093-1.856Zm-5.782,5.81-1.02,4.367,1.02,2.834,1.02-2.834Zm-.826,6.89-.961-2.355-4.25-4.1,2.1,3.217Zm-7.491-11.354,0,1.641h-1.483Zm2.7,6.82-2.7-4.354h-1.483Zm3.288.843-2.134-5.2h-2.859Zm.826,0,1.08-5.2H855.2Zm-2-8.3,2.051-.711h-3.146Zm-.856.666-2.659,1.61H854.4Zm.646.01,2.382,1.6h-2.382Zm-2.067-1.387-1.894.728-.013,1.983,3.093-1.856Zm5.782,0-2.937,1.08,2.937,1.907,2.937-1.907Zm.019,14.549-11.188-11.122,3.574-3.949.57-.2h14.049l.571.2,3.574,3.949Zm-61.847,48.392h-1.16a12.082,12.082,0,0,0-.929-3.714c-1.245-2.332-3.493-3.5-6.764-3.5h-5.919v32a21.84,21.84,0,0,0,.133,2.623,1.567,1.567,0,0,1,.878-.813,14.509,14.509,0,0,1,6.945-.3c2.658.556,2.824,2.65,3.247,3.864l.038.119a3.077,3.077,0,0,0,.968-.572q1.551-1.456,3.492-6.015l10.319-24.109.074-.172c.927-2.221,1.37-4.386.481-5.942-1.236-2.162-3.746-2.068-5.868-2.068h-6.341Z" transform="translate(-740.516 -2433.376)" fill="#fff" fill-rule="evenodd"/></svg>