<svg xmlns="http://www.w3.org/2000/svg" width="28.347" height="28.346" viewBox="0 0 28.347 28.346"><path d="M1424.342,55.406c-.582.066-.664.38-.552.969a8.8,8.8,0,0,0,.361,1.269,19.126,19.126,0,0,0,.988,2.268,25.311,25.311,0,0,0,1.506,2.56c.291.439.7,1.027,1.021,1.429l.467.545c.189.213.327.329.5.514.071.076.136.114.214.2l.446.376a7.485,7.485,0,0,0,4.75,1.767c.492-.012,1.045-.044,1.289-.341a1.068,1.068,0,0,0,.133-.672v-.823a5.981,5.981,0,0,1,.081-1.532c.1-.19.339-.225.609-.195a1.644,1.644,0,0,1,.6.222,5.98,5.98,0,0,1,.938.692c.2.171.677.625.832.8s.538.556.686.737a.955.955,0,0,0,.1.108l.385.421a2.564,2.564,0,0,0,.436.386,2.426,2.426,0,0,0,1.43.2c.505,0,1.129.031,1.614-.011.524-.046.742-.412.568-.943a4.149,4.149,0,0,0-.594-1.035,20.626,20.626,0,0,0-2.3-2.59c-.211-.2-.662-.639-.674-.957a1.119,1.119,0,0,1,.243-.568c.115-.16.222-.323.336-.485.515-.736,1.471-2.208,1.892-2.981a11.241,11.241,0,0,0,.542-1.086c.608-1.468-.3-1.253-1.6-1.253a5.731,5.731,0,0,0-1.55.083c-.421.178-.482.521-.684.943-.088.183-.168.366-.259.55-.236.478-.585,1.139-.861,1.588a14.587,14.587,0,0,1-.988,1.449,5.279,5.279,0,0,1-.783.846,1.272,1.272,0,0,1-.514.308c-.581.125-.481-.743-.481-1.112V56.792c0-.258.012-.542-.011-.793-.063-.692-.5-.6-1.029-.6h-2.437a4.039,4.039,0,0,0-.78.028.507.507,0,0,0-.371.459c-.021.582.867.635.868,2.393,0,.32.017,3,0,3.249s-.05.489-.245.56c-.467.171-1.14-.715-1.374-1.037s-.445-.632-.649-.98-.387-.676-.583-1.046a21.2,21.2,0,0,1-1-2.262,3.947,3.947,0,0,0-.5-1.127c-.27-.312-.891-.237-1.395-.237-.313,0-1.387-.014-1.614.012m.926-8.231h17.007a5.686,5.686,0,0,1,5.67,5.669V69.853a5.686,5.686,0,0,1-5.67,5.668h-17.007a5.686,5.686,0,0,1-5.67-5.668V52.844A5.686,5.686,0,0,1,1425.268,47.175Z" transform="translate(-1419.598 -47.175)" fill="#fff" fill-rule="evenodd"/></svg>