<svg xmlns="http://www.w3.org/2000/svg" xmlns:xlink="http://www.w3.org/1999/xlink" width="1574.401" height="846" viewBox="0 0 1574.401 846"><defs><clipPath id="a"><rect width="1574.401" height="846" transform="translate(0.139 2362.07)" fill="none"/></clipPath></defs><g transform="translate(-0.139 -2362.07)" clip-path="url(#a)"><path d="M1206.292,2786.719c-.7,4.439-1.41,5.612-.785,10.568-4.934-1.235-10.146-2.684-15.082-3.919,4.763-1.952,10.024-3.854,15.867-6.649m-114.675,145.872-28.524-67.884-29.247,67.884Zm482.539,0-28.524-67.884-29.244,67.884Zm-60.722-97.762H1474.81c-10.067,0-21.5-.087-23.615,12.739-.337,1.736-.508,5.882-.508,12.485v108.13c0,8.508.552,14.095,1.607,16.8a10.547,10.547,0,0,0,5.122,5.337c5.98,3.342,14.453,3.128,19.654-1.864q6.221-5.841,14.008-24.122l41.385-96.689.292-.692c5.009-12,6.5-23.588-3.852-29.348C1523.276,2834.468,1519.511,2834.829,1513.434,2834.829Zm-167.869,193.558h-5.687l2.808-6.541Zm3.52,8.566h6.218v-.924l-11.232-24.276h-2.737l-11.195,24.276v.924h6.219l1.459-3.13h9.809Zm-26.762-24.88h-6.505v9.026h-7.678v-9.026h-6.505v24.88h6.505v-9.989h7.678v9.989h6.505Zm-43.715-7.784c-1.246.071-2.454.212-3.662.354.107,3.981,2.345,6.077,6.184,6.077,3.945,0,6.079-2.1,6.221-6.077-1.208-.142-2.418-.283-3.661-.354-.213,1.491-1.173,1.954-2.631,1.954C1279.567,3006.243,1278.714,3005.6,1278.608,3004.289Zm-6.824,32.664h-2.276v-24.88h6.5v12.171l12.583-12.278h2.311v24.987h-6.575v-12.228Zm-20.08-8.566h-5.687l2.808-6.541Zm3.519,8.566h6.219v-.924l-11.232-24.276h-2.735l-11.2,24.276v.924h6.219l1.459-3.13h9.809Zm-36.926-18.591c0-.924.816-1.456,2.2-1.456a2.155,2.155,0,1,1-.071,4.3h-1.671v5.19h1.742c4.265,0,4.265,5.652,0,5.652a2.986,2.986,0,0,1-3.127-3.2h-5.581c0,5.58,3.305,8.566,8.708,8.566,6.4,0,9.6-3.411,9.6-7.82a6.34,6.34,0,0,0-3.591-6.147,5.89,5.89,0,0,0,2.17-4.6c0-3.608-2.737-7.2-8.176-7.2-4.337,0-8.069,2.134-7.854,6.717Zm-22.247,6.363v12.228h6.576v-24.987h-2.312l-12.582,12.278v-12.171h-6.505v24.88h2.276Zm-39.451-6.859h3.021c7.926,0,7.926,13.293,0,13.293H1156.6Zm3.021-5.793h-9.384v24.88h9.384C1175.828,3036.882,1175.828,3012.143,1159.62,3012.073Zm-5.8,271.627q4.993-8.591,10.179-18.865t9.672-20.455q4.485-10.176,8.17-19.4t5.654-15.94q-9.422,10.189-18.6,21.055a240.045,240.045,0,0,0-16.911,22.589,186.519,186.519,0,0,0-13.7,24.612,136.1,136.1,0,0,0-9.178,27.161q-1.3,5.19.936,5.337t6.159-3.287a73.362,73.362,0,0,0,8.73-9.49A100.918,100.918,0,0,0,1153.818,3283.7Zm124.912-153.678c-18.821,11.674-42.4,30.112-57.627,45.77q-1.928,8.847-4.778,24.016-2.869,15.166-7.064,32.677-4.215,17.506-10.175,35.634a194.948,194.948,0,0,1-14.222,33.134,99.475,99.475,0,0,1-19.209,25.189,41.9,41.9,0,0,1-25.022,11.529c-1.261.184-3.493-.319-6.733-1.507a30.055,30.055,0,0,1-9.767-6.3,33.047,33.047,0,0,1-8.015-12.143q-3.1-7.632-1.232-19.324a96.919,96.919,0,0,1,8.154-25.583,207.75,207.75,0,0,1,14.268-25.412q8.2-12.5,17.587-24.118t18.349-21.729q5.264-6.243,10.665-12.154t11.146-11.988q1.7-8.574,3.158-17.354c2.695-16.235,4.375-32.343,6.019-48.7q-.233.271-2.732,4.209c-7.019,11.043-17.682,24.854-27.5,33.3a53,53,0,0,1-12.52,8.145c-5.168,2.365-9.431,2.748-12.9,1.7-6.975-2.1-10.772-9.951-12.381-19.031-2.943-15.176-.064-31.643,4.324-46.284,2.07-6.913,4.717-13.265,7.864-16.292,2.97-2.857,10.266-3.728,17.077-3.025a30.834,30.834,0,0,1,10.346,2.693c7.841,3.989,1.9,12.194-.249,18.222-2.863,8.008-8.544,23.783-8.382,31.445.16,7.542,6.8,1.235,9.218-1.194,9.011-9.052,21.72-28.143,24.12-32.308a140.973,140.973,0,0,0,9.264-19.036c2.228-6.126,6.716-8.6,10.627-7.67,4.462,1.059,6.625,6.285,7.6,12.225a77.754,77.754,0,0,1,.45,17.318q-.828,10.712-1.775,21.556-.531,8.165-1.179,16.467t-1.412,16.5q6.693-5.744,13.278-11.11t13.52-10.909c5.432-3.905,22.019-19,27.684-14.468C1281.875,3116.756,1282.112,3127.926,1278.73,3130.022Zm37.119,50c-15.67,18.081-28.214,33.38-40.914,53.658a224.363,224.363,0,0,0-11.662,20.742,68.734,68.734,0,0,0-6.033,16.769q-1.343,7.161,2.671,9.4,3.132,1.938,7.11-.6C1294.1,3262.7,1309.623,3209.5,1315.849,3180.018Zm102.89-51.489c-.751.561-8.373,6.068-11.616,10.157-2.936,3.708.35,5.721,4.109,2.675C1415.04,3138.278,1418.242,3131.66,1418.739,3128.529Zm162.824-35.288c-26.964,24.545-71.8,52.639-95.738,56.7-26.99,4.577-25.319-32.242-24.484-49.982-4.681,3.039-10.208,6.74-16.024,10.727a81.578,81.578,0,0,1-7.921,28.513c-5.882,11.49-15.062,22.983-26.334,22.236-9.832-.649-15.426-6.221-16.439-13.954-2.573-19.667,20.7-31.268,34.382-41.2-.23-10.308-6.811-15.6-16.478-10.321-5.109,2.786-9.295,8.107-12.693,14.468-6.352,11.892-10.206,33.085-10.459,46.371-.175,9.212-14.051,9.065-18.34,1.966-3.236-5.359-2.724-20.175-1.155-35.308-9.559,8.575-20.982,20.28-27.892,30.442,4.266,42.879-12.367,127.841-58.088,152.221-4.705,2.511-9.089,4.78-14.118,5.226q-10.119,1.047-16.343-4.023t-9.1-14.22a47.751,47.751,0,0,1-2.039-23.962,86.084,86.084,0,0,1,8.121-24.254c13.728-27.376,46.884-66.053,67.584-88.342,2.62-14.163-5.931-22.722-15.237-24.251-6.119-1.007-14.8.452-15.587-11.7-.191-2.919-.235-5.8,6.533-8.982,8.593-4.034,20-12.326,27.024-21.213,5.509-6.975,8.185-14.936,6.17-19.43-4.7-10.479-29.459,5.037-35.818,9.175-6.645,4.324-9.812,3.187-9.244-8.149.281-5.683.173-10.971,8.845-15.382a125.617,125.617,0,0,1,21.618-8.749c8.79-2.509,17.8-3.509,24.346-.448,12.064,5.643,14.83,22.061,7.3,39.927-5.425,12.879-17.713,24.674-28.311,29.3,12.316,2.45,20.94,11.364,23.183,18.76,11.99-11.814,20.891-22.175,33.615-32.082,1.259-16.179,3.005-33.745,5.82-53,1.853-10.215,5.76-12.039,12.6-13.351,15.738-3.019,20.474-1.184,15.906,20.88-1.017,4.92-2.775,15.23-3.737,19.69,20.12-10.007,36.556-2.784,41.262,18.074,5.959-3.506,12.374-7.531,18.22-11.372,1.831-18.837,3.681-28.7,6.507-44.675,2.531-14.328,1.518-18.267,17.824-20.882,16.157-2.593,15.5.816,13.083,18.285-3.3,23.8-15.537,60.975-12.319,79.7,1.164,6.753,4.8,9.834,12.649,6.922,21.044-7.819,66.066-54.174,81.733-70.935,15.176-16.237,17.842-2.948,16.16,10.31C1596.377,3076.955,1592.06,3083.684,1581.563,3093.241Zm-480.416-137.113-6.061-14.4H1030l-11.427,26.452q-4.192,9.777-4.191,14.6,0,9.138,19.468,10.494v4.825H992.124c1.9,12.245,3.788,33.416,4.335,40.667q.945,12.5,1.277,26.474t-.018,28.056q-.353,14.078-1.3,27.412t-2.564,24.4a508.615,508.615,0,0,0,26.266-43.705q12.188-22.756,22.518-46.627t18.71-48.019q8.381-24.142,14.59-47.549.445-2.011,5.086-3.107a41.741,41.741,0,0,1,10.869-.9A70.363,70.363,0,0,1,1101.147,2956.128Zm166.661-85.082-1.818-3.28,1.818-2.214Zm10.665,65.778.192.153c9.566,7.657,10.812,21.864,23.416,25.718,4.18,1.509,10.549,2.057,12.154-1.88.882-2.182.723-3.741-1.786-4.033-1.769-.2-1.323.744-7.405-6.166-4.98-5.656-6.5-14.176-8.389-21.341-2.573-9.7-7.927-14.814-11.766-23.573-2.185-4.989-4.311-9.61-6.416-13.991v-39.449q6.541-7.678,9.778-10.155c8.249-6.644,20.406-9.694,30.011-4.317a10.533,10.533,0,0,1,5.122,5.332c1.055,2.709,1.609,8.338,1.609,16.931v108.13c0,10.157-.975,16.507-2.965,19.046-3.172,4.021-8.207,6.051-15.193,6.051h-10.33c-7.2,0-12.319-2.156-15.28-6.432-1.819-2.624-2.752-8.634-2.752-18.027Zm-66.57-106.592c2.44,8.589,9.351,16.459,8.436,30.683-.326,5.135-2.955,4.588-5.987,7.4-7.5,6.959-3.83,10.705.5,17.956a20.509,20.509,0,0,1,1.815,3.948l-53.728,65.864v-96.744c0-10.328,1.141-16.76,3.473-19.3,3.085-3.473,7.91-5.206,14.554-5.206h5.843v-2.161C1196.759,2831.908,1205.536,2830.972,1211.9,2830.232Zm-157.172-99.422c-6.616.339-13.558.49-20.674.41q-4.655-.052-9.167-.285c-14.04,11.686-22.609,27.44-30.787,42.484-11.664,21.463-22.7,41.756-41.8,51.837q3.067-.245,6.58-.687c22.03-2.774,50.029-15.629,78.074-37.661q5.04-3.96,10.056-8.309c.594-3.263,1.157-6.43,1.646-9.28,1.707-9.912,1.844-18.668,4.078-29.165C1053.361,2737.251,1054.039,2734.1,1054.731,2730.81Zm40-5.093c-3.216.745-6.707,1.432-10.432,2.048-1.5,6.538-2.855,12.675-3.71,16.385Q1087.862,2735.378,1094.733,2725.717Zm-7.6-9.947q6.625.954,13.4,1.483l1.385-2.218-.465-1.25c-3-.242-8.362-.444-13.688-.579Zm4.468-15.188h0l0,0ZM963.03,2590.114a196.607,196.607,0,0,0,8.2,37.287c9.042,27.926,26.418,49.172,48.91,64.045a146.8,146.8,0,0,0,30.784,15.362q4.1-1.506,8.568-2.68a88.073,88.073,0,0,0,.825-12.777c-12.666,12.759-30.14,1.053-30.944.558,17.54-2.9,30.541-19.751,39.849-43.534-25.7-30.564-59.6-42.21-91.128-53.026C973.01,2593.6,967.975,2591.878,963.03,2590.114Zm82.678,118.8a155.415,155.415,0,0,1-31.051-15.7c-23.287-15.4-41.23-37.261-50.494-65.86a198.26,198.26,0,0,1-8.533-39.941c-31.454-11.771-58.524-26.267-72.068-58.575a183,183,0,0,0-2.464,28.107,187.987,187.987,0,0,0,11.028,65.8,159.517,159.517,0,0,0,35.814,57.713c22.65,23.054,53.781,39.574,94.151,44.047A85.611,85.611,0,0,1,1045.708,2708.917Zm12.088,6.264a77.685,77.685,0,0,0-25.293,10.2q4.741.273,9.637.328c4.672.053,9.246,0,13.674-.153C1056.508,2722.134,1057.184,2718.638,1057.8,2715.181Zm39.774,5.29q-5.679-.519-11.257-1.316l-.893,3.778A104.8,104.8,0,0,0,1097.57,2720.471ZM962.3,2582.791c4.031,1.437,8.129,2.841,12.272,4.264,33.5,11.494,69.375,23.81,97.58,53.27a263.7,263.7,0,0,0,8.484-32.523c-13.839-18.072-31.177-32.934-47.354-46.8-30.235-25.915-56.487-48.431-49.072-82.414a166.281,166.281,0,0,0-12.9,28.913A188.217,188.217,0,0,0,962.3,2582.791Zm-20.439,247.215c-13.972-.973-28.087-4.882-33.356-15.807a20.161,20.161,0,0,1-1.58-11.779c.749-5,3.012-9.382,5.049-11.463.957-.989,4.816-1.117,8.615-.288s6.1,2.305,5.146,3.293c-1.86,1.9-3.936,5.971-4.641,10.685-3.641,24.357,22.225,16.142,34.991,8.96,14.493-8.153,22.82-23.472,31.607-39.638,8.178-15.049,16.682-30.687,28.606-43.648-44.32-4.056-77.928-21.339-101.871-45.7a161.212,161.212,0,0,1-36.19-58.3,189.356,189.356,0,0,1-11.146-66.276c.421-37.368,10.632-75.2,37.908-102,1.518-1.494,5.623-2.939,9.167-3.229s5.184.691,3.666,2.185c-13.294,13.063-23.183,30.722-29.336,50.8a113.54,113.54,0,0,0,4,16.474c10.37,31.819,34.3,45.228,62.487,55.855a189.74,189.74,0,0,1,9.266-73.757c12.992-38.424,38.07-68.934,69.149-82.4a6.585,6.585,0,0,1,5.054.348c1.438.775,1.509,1.877.157,2.46-14.627,6.338-27.912,16.653-39.171,29.92-22.451,41.975,6.932,67.17,41.733,97,14.595,12.511,30.122,25.822,43.232,41.565,12.276-30.741,27.622-56.541,69.317-27.6a11.8,11.8,0,0,1,4.757,5.846c1.134,3.245-.2,6.177-1.629,9a9.22,9.22,0,0,0-.78,2.6c-.322,5.923-.379,10.531-.965,10.964-.339,1.533-1.547,5.414-1.613,6a3.07,3.07,0,0,0,3.3.439c.359-.131.581-.049.477.133-.741,1.3-3.017,1.316-3.917,1.128,0,.915,3.378,6.58,4.974,8.839.543.769,1.194,1.2.815,2.314-.534,1.555-2.806,2.245-4.211,2.216-.259,2.061-.755,1.914.421,3.28,1.441,1.72-.884,3.978-4.1,3.644a1.471,1.471,0,0,0,.661.942,2.661,2.661,0,0,1,1.137,1.795c.255,2.006-2.336,1.587-3.289,2.5a2.629,2.629,0,0,0-.856,1.879c-.011.661.67,1.292.621,2.527a4.458,4.458,0,0,1-3.845,4.424c-2.334.516-6.581-.716-10.694-1.887-3.54-.767-6.663-.906-7.653,3.449a12.28,12.28,0,0,0,1.1,7.063c1.044,2.1,3.189,2.786,4.92,3.855,3.967,2.458,5.388,5.379,8,9.631,3.743,6.1,11.37,13.294,16.855,18.385,7.279,6.751,8.8,17.074.834,23.748l9.306,10.536c3.018-1.682,6.072-3.925,9.581-5.7,10.521-5.335,19.672-8.261,32.146-14.617,3.466-1.766,7.344-3.411,10.294-5.284,9.163-5.816,12.631-6.024,17.531-5.585,3.586.324,8.179,1.343,11.3,1.481,2.772.128,14.339,1.91,5.228,4.53-2.941.84-7.072-.071-10.463-.4,3.98,5.716,15.587,2.622,20.855,1.135a25.5,25.5,0,0,1,7.824-1.286c4.8.2,4.967,2.489.053,3.714a39.97,39.97,0,0,0-4.269,1.111c-2.766.949-4.565,2.19-7.346,3.5-19.367,9.114-29.551-9.55-52.04,7.565-10.634,8.094-26.729,22.039-37.861,27.883-6.986,3.673-8.972,3.484-11.995,1.228-.864-.64-6.073-4.729-6.1-4.525-2.662,19.058,1.6,25.157-1.288,41.93,13.3-4.351,32.668-16.144,62.1-23.112,14.058-2.187,21.214,7.662,21.059,20.953-.157,13.7-.678,27.609-.986,41.352-.157,6.787,1.511,8.185,6.223,15.579,2.727,4.288,5.532,8.446,8.119,12.894l4.827,8.258,12.639-15.494h107.206v4.823h-6.135a24.2,24.2,0,0,0-11.172,2.708c-3.555,1.82-5.716,5.162-6.56,10.031a91.9,91.9,0,0,0-.508,12.441v47.949h78.462v-47.949c0-8.549-.547-14.178-1.609-16.887-2.241-5.545-7.744-8.293-16.545-8.293h-5.968v-4.823H1556.16l56.933,135.807q5.9,14.093,10.157,18.919c4.442,5.206,10.7,8.041,18.7,8.548v4.825h-66.32v-4.825c11.388-.594,17.1-3.978,17.1-10.241,0-3.64-1.65-9.353-4.952-17.184l-10.157-24.124h-65.089l-11.427,26.452q-4.193,9.777-4.191,14.6,0,9.138,19.47,10.494v4.825h-113.44v-4.825h5.968c6.9,0,11.893-2.03,15.067-6.051,2.072-2.668,3.087-9.015,3.087-19.046V2917.1h-78.462v51.082c0,8.466.55,14.095,1.609,16.8,2.285,5.548,7.828,8.3,16.631,8.3h6.135v4.825H1243.94v-4.825h5.966c6.645,0,11.468-1.733,14.56-5.206,2.242-2.453,3.342-8.885,3.342-19.253V2929.6c-4.9-2.9-8.039-4.626-9.561-8.9-.246-3.282,0-5.733,1.651-8.153,4.969-7.3,9.547-8.152,2.309-17.377a81.477,81.477,0,0,0-7.624-8.636c-.521-.466-1.33-1.171-2.332-2.024L1234,2906.762a131.531,131.531,0,0,0,1.1,17.744c.019,2.6.183,3.187-.535,3.641-1.569.991-5.119-1.281-7.733-3.373a23.2,23.2,0,0,1-3.7-4.767l-64.078,78.1h-34.727q1.146,14.016,1.252,31.321.109,17.481-.435,35.754t-1.518,36.2q-.974,17.908-2.374,33.114t-3.007,26.412a121.891,121.891,0,0,1-3.021,15.86,14.351,14.351,0,0,1-6.472,8.169c-11.764,7.154-34.818,5.942-44.672-3.311q-3.2-3-2.3-6.749,1.979-9.452,4.129-23.517t4.2-29.918q2.052-15.852,3.779-32.635t2.866-31.667q1.137-14.888,1.465-26.878a117.446,117.446,0,0,0-.563-18.249q-4.406,10.642-10.049,23.972t-12.187,27.9q-6.546,14.566-13.766,29.375t-14.907,28.71q-7.686,13.906-15.749,25.915c-6.421,9.566-14.462,23.883-26.991,24.838-10.644.814-24.075-4.131-28.765-10.554q.451-7,.308-20.042t-.4-28.134c-.43-25.328-3.77-72.391-3.684-70.769-21.952,72.137-69.191,149.648-121.42,209.7-10.182,6.8-44.957,6.275-51.486-9.863,59.005-34.4,141.364-172.259,162.2-244.943H897.826v-4.825h6.051c7.2,0,12.271-2.156,15.319-6.432,1.82-2.668,2.753-8.674,2.753-18.114v-128.32H901.676c-7.957,0-13.544.592-16.76,1.738-9.947,3.555-15.49,12.65-16.547,27.209h-4.783l1.991-39.355Zm102-34.82c-26.658,19.561-53.476,31.106-75.433,33.874-2.839.357-6.323.713-10.171.946h47.288c-3.936,0,4.592-7.287,18.3-8.808,12.8-1.409,13.833-3.129,17.184-13.3C1041.555,2806.309,1042.623,2801.378,1043.86,2795.186Zm61.392-61.9a303.7,303.7,0,0,1-36.2,40.88c-1.739,2.78-3.544,5.568-5.3,8.456-9.9,16.237-10.548,30.578-12.611,39.284a11.18,11.18,0,0,1-6.3,8.1h28.783l56.933,135.807q5.9,14.093,10.155,18.919a23.462,23.462,0,0,0,11.563,7.345V2859.335c0-9.4-.931-15.408-2.751-18.072-2.963-4.278-8.04-6.434-15.15-6.434H1128.4v-2.021c-12.345-1.355-23.162-3.965-30.27-8.5-12.212-7.8-17.551-25.929-2.112-49.393C1102.592,2764.919,1105.985,2748.45,1105.252,2733.29Zm150.831-65.423,3.852-9.444,17.048-16.461-8.4,12.9Zm30.043-45.534.013,6.58h5.944Zm-10.818,27.349,10.831-17.458h5.944Zm-13.187,3.382,8.559-20.84h11.465Zm-3.311,0-4.333-20.84h12.568Zm8.018-33.276-8.227-2.854h12.62Zm3.433,2.669,10.661,6.456h-10.661Zm-2.591.04-9.554,6.416h9.554Zm8.289-5.563,7.593,2.92.056,7.955-12.405-7.447Zm-23.189,23.3-4.089,17.515,4.089,11.366,4.091-11.366Zm-3.311,27.631-3.852-9.444-17.048-16.461,8.4,12.9Zm-30.043-45.534-.013,6.58h-5.944Zm10.818,27.349-10.831-17.458h-5.944Zm13.187,3.382-8.559-20.84H1223.4Zm3.312,0,4.332-20.84H1238.5Zm-8.019-33.276,8.227-2.854h-12.62Zm-3.433,2.669-10.66,6.456h10.66Zm2.591.04,9.554,6.416h-9.554Zm-8.289-5.563-7.593,2.92-.056,7.955,12.405-7.447Zm23.187,0-11.778,4.33,11.778,7.649,11.78-7.649Zm.08,58.349-44.872-44.606,14.333-15.836,2.287-.786h56.346l2.287.786,14.333,15.836Zm-248.037,194.078h-4.653c-.931-6.941-2.161-11.933-3.725-14.9-4.993-9.353-14.01-14.052-27.128-14.052H945.566v128.32a87.543,87.543,0,0,0,.536,10.521,6.3,6.3,0,0,1,3.52-3.26c8.08-2.726,19.35-3,27.854-1.219,10.659,2.227,11.324,10.627,13.021,15.5l.153.476a12.285,12.285,0,0,0,3.881-2.292q6.22-5.841,14.007-24.122l41.383-96.689.295-.692c3.719-8.907,5.494-17.588,1.93-23.827-4.955-8.673-15.024-8.3-23.532-8.3h-25.433Z" fill="#fd7e7a" fill-rule="evenodd"/></g></svg>