<svg xmlns="http://www.w3.org/2000/svg" width="163.542" height="61.191" viewBox="0 0 163.542 61.191"><g transform="translate(-859.831 -692.955)"><path d="M990.416,753.088a2.892,2.892,0,0,0,2.975,3.034,2.662,2.662,0,0,0,2.621-1.661,3.927,3.927,0,0,0,.211-1.6h-2.765v.834H995.3a1.676,1.676,0,0,1-1.905,1.535,2.143,2.143,0,0,1,0-4.274,1.686,1.686,0,0,1,1.686.961h.969a2.549,2.549,0,0,0-2.647-1.846,2.9,2.9,0,0,0-2.983,3.018m-3.563,2.966h.337v-5.908h-.978v2.149l.068,1.8-3.582-3.964h-.354v5.909h.969V753.9l-.067-1.868Zm-8.62-.8V750.93h.86v-.784h-2.7v.784h.859v4.323h-.935v.793h2.849v-.793Zm-5.425.8h.337v-5.908h-.978v2.149l.068,1.8-3.583-3.964H968.3v5.909h.97V753.9l-.068-1.868ZM962.5,751.638,963.53,754h-2.065Zm1.34,3.186.582,1.222h1.02v-.127L962.73,750.1h-.456l-2.73,5.815v.127h1.028l.573-1.222Zm-10.457-1.643V751h1.458a1.056,1.056,0,0,1,1.1,1.078,1.068,1.068,0,0,1-1.1,1.105Zm2.275.657a1.849,1.849,0,0,0,1.239-1.77,1.9,1.9,0,0,0-2.048-1.922h-2.435v5.9h.986v-2.057h1.3l1.466,2.057h.995V755.9Zm-8.914-2.824v5.032h.961v-5.032h1.71v-.868h-4.382v.868Zm-11.537,2.4V751h1.475a1.129,1.129,0,0,1,1.138,1.205,1.147,1.147,0,0,1-1.138,1.213Zm.017,2.63v-1.77h1.458a2.065,2.065,0,1,0,0-4.13H934.24v5.9Zm-5.1-.793V750.93h.86v-.784h-2.7v.784h.86v4.323h-.936v.793h2.849v-.793Zm-8.4-2.072V751h1.458a1.056,1.056,0,0,1,1.1,1.078,1.068,1.068,0,0,1-1.1,1.105Zm2.275.657a1.85,1.85,0,0,0,1.239-1.77,1.9,1.9,0,0,0-2.048-1.922h-2.436v5.9h.987v-2.057h1.3l1.466,2.057h.995V755.9Zm-8.915-2.824v5.032h.961v-5.032h1.711v-.868h-4.383v.868Zm-9.032,5.04h.337v-5.908h-.978v2.149l.067,1.8-3.582-3.964h-.354v5.909h.97V753.9l-.068-1.868Zm-12.75-2.958a2.021,2.021,0,1,1,2.014,2.124A1.971,1.971,0,0,1,893.307,753.1Zm5.014,0a3,3,0,1,0-3.017,3.051A2.91,2.91,0,0,0,898.321,753.1Zm-9.681,2.157V750.93h.859v-.784h-2.7v.784h.86v4.323h-.936v.793h2.849v-.793Zm-7.187-4.239v5.032h.96v-5.032h1.711v-.868h-4.382v.868Zm-9.21,2.082a2.021,2.021,0,1,1,2.014,2.124A1.971,1.971,0,0,1,872.243,753.1Zm5.015,0a3.005,3.005,0,1,0-3.018,3.051A2.911,2.911,0,0,0,877.258,753.1Zm-11.992.085-2.4-3.052H862.5v5.917h.986v-3.692l1.711,2.183h.135l1.7-2.183v3.692h.986v-5.917h-.362Zm-6.142-3.035h-3.59v5.9h3.641v-.894H856.52v-1.719h2.461v-.868H856.52v-1.559h2.6Z" transform="translate(6.861 -2)" fill="#141515"/><path d="M945.812,730.776a3.2,3.2,0,0,0,.853-.06,2.322,2.322,0,0,0,1.034-.516,2.6,2.6,0,0,0,.7-.966c.242-.592.186-1.461-.6-.962a4.651,4.651,0,0,0-.91.809,6.7,6.7,0,0,0-1.077,1.7m-30.5-7.736q-.642-.033-1.268-.074a54.793,54.793,0,0,0-.87,5.661C913.96,726.812,914.678,724.911,915.31,723.04Zm-1-1.306q.688.051,1.4.09c.794-2.474,1.43-4.849,1.872-6.848a30.854,30.854,0,0,0,.675-4.061c.009-.135.025-.261.044-.377a40.2,40.2,0,0,0-3.758,10.2Q914.423,721.233,914.309,721.734Zm-13.1-1.92c-.258-.181-.153-.553.234-.831a1.14,1.14,0,0,1,1.169-.177c2.156,1.5,5.747,2.375,10.264,2.808.034-.143.068-.285.1-.426,1.185-4.843,2.912-9.343,4.7-11.747a2.147,2.147,0,0,1,1.393-.958c.624-.087.874.594.783,1.834a31.566,31.566,0,0,1-.694,4.187,75.674,75.674,0,0,1-2.064,7.383q2.016.076,4.187.076c8.544.005,18.647-.81,28.367-1.675.445-.039.7.194.568.523a1.316,1.316,0,0,1-1.043.666c-9.791.871-19.969,1.692-28.562,1.688-1.35,0-2.662-.023-3.929-.067a64.327,64.327,0,0,1-3.691,8.633c-.012.781.005,1.528.056,2.23a8.209,8.209,0,0,0,1.571,4.718,3.939,3.939,0,0,0,2.422,1.425,4.77,4.77,0,0,0,2.587-.341,8.058,8.058,0,0,0,3.667-3.286,1.208,1.208,0,0,1,.254-.291,7.454,7.454,0,0,1,1.965-6.955,1.409,1.409,0,0,1,1.2-.381c.357.093.4.413.1.715a6.314,6.314,0,0,0-1.761,4.547,6.646,6.646,0,0,0,.453,2.354,5.806,5.806,0,0,0,1.291,1.987,5.745,5.745,0,0,0,4.255,1.628,4.869,4.869,0,0,0,2.768-.865,6.157,6.157,0,0,0,2.1-2.687,5.773,5.773,0,0,0-.338-5.2,6.863,6.863,0,0,0-1.426-1.743,6.7,6.7,0,0,0-1.83-1.151,3.964,3.964,0,0,0-3.472-.031,1.052,1.052,0,0,1-1.136.06c-.2-.2-.035-.559.374-.8,5.746-3.588,9.923-1.355,13,.749a16.666,16.666,0,0,0,3.329,2.042,7.76,7.76,0,0,1,1.113-1.641,6.984,6.984,0,0,1,1.407-1.22,3.807,3.807,0,0,1,1.74-.632c1.389-.1,1.86.892,1.359,2.121a4.236,4.236,0,0,1-1.16,1.561,5.246,5.246,0,0,1-2.352,1.157,5.334,5.334,0,0,1-1.146.116,12.176,12.176,0,0,0-.48,2.281,9.713,9.713,0,0,0,.241,3.724,3.759,3.759,0,0,0,1.657,2.36,2.578,2.578,0,0,0,1.522.285c1.353-.135,2.69-1.273,3.883-2.788a28.736,28.736,0,0,0,4.149-8.061,1.491,1.491,0,0,1,.935-.677c.574-.165.722.139.708.453a3.692,3.692,0,0,1-.354,1.042,22.758,22.758,0,0,0-.694,7.175c.332,3.847,2.028,6.179,5.214,3.193a23.21,23.21,0,0,0,4.086-5.529,9.819,9.819,0,0,1,2.282-3.85,7.741,7.741,0,0,1,9.14-1.725c.751.33-.4,1.575-1.162,1.239-2.968-1.3-5.336-.545-6.856,1.022a7.942,7.942,0,0,0-1.846,3.2,6.923,6.923,0,0,0-.189,3.567,3.742,3.742,0,0,0,3.481,3.018,5.887,5.887,0,0,0,4.61-1.635,8.82,8.82,0,0,0,2.452-5.421,1.181,1.181,0,0,1,.892-.836c.82-.2.727.4.773.917A9.9,9.9,0,0,0,981,738.783a6.2,6.2,0,0,0,2.132,2.264,6.065,6.065,0,0,0,3.435.834,16.316,16.316,0,0,0,7.27-2.5c1.107-.631,2.23-1.413,3.413-2.236,4.371-3.043,9.534-6.637,18.766-6.637a.433.433,0,0,1,.434.667,1.292,1.292,0,0,1-1.071.67c-8.541,0-13.34,3.341-17.4,6.169-1.237.862-2.411,1.678-3.621,2.368-3.415,1.946-6.166,2.764-8.369,2.836a7.292,7.292,0,0,1-4.126-.987,6.947,6.947,0,0,1-2.394-2.533,9.467,9.467,0,0,1-.729-1.637,9.422,9.422,0,0,1-1.978,2.757,8.284,8.284,0,0,1-6.461,2.364A4.563,4.563,0,0,1,966,739.553a6.594,6.594,0,0,1-.174-1.356,21.065,21.065,0,0,1-2.681,3.137c-3.965,3.715-7.3,2.77-7.793-2.911a19.236,19.236,0,0,1,0-3.019,21.688,21.688,0,0,1-1.708,2.549c-1.58,2.005-3.512,3.527-5.764,3.753a4.135,4.135,0,0,1-2.433-.422,4.357,4.357,0,0,1-1.983-2.734,10.329,10.329,0,0,1-.261-3.975,12.667,12.667,0,0,1,.665-2.861,13.456,13.456,0,0,1-4.205-2.338c-1.948-1.327-4.359-2.7-7.2-2.34a6.89,6.89,0,0,1,1.115.358,7.616,7.616,0,0,1,3.622,3.2,6.432,6.432,0,0,1,.341,5.8,7.93,7.93,0,0,1-2.758,3.436,7.718,7.718,0,0,1-4.377,1.405,6.928,6.928,0,0,1-5.141-1.906,6.347,6.347,0,0,1-1.286-1.875,10.774,10.774,0,0,1-4.341,3.377,6.752,6.752,0,0,1-3.64.509,4.619,4.619,0,0,1-2.852-1.649,8.71,8.71,0,0,1-1.688-5.02l-.017-.252a17.19,17.19,0,0,1-4.456,4.995,11.471,11.471,0,0,1-7.424,2.013,5.784,5.784,0,0,1-3.408-1.66,6.668,6.668,0,0,1-1.784-3.495,6.976,6.976,0,0,1-.107-1.652l-.291.438c-2.109,3.177-4.234,6.379-7.744,6.425a2.958,2.958,0,0,1-1.6-.414,4.063,4.063,0,0,1-1.6-2.249,10.817,10.817,0,0,1-.5-3.273,12.025,12.025,0,0,1,1.252-5.821,1.5,1.5,0,0,1,1.077-.654c.386-.018.53.245.321.587a10.943,10.943,0,0,0-1.055,5.228,10.209,10.209,0,0,0,.466,3.088,3.553,3.553,0,0,0,1.375,1.967,1.992,1.992,0,0,0,1.081.3c2.154-.027,3.868-2.61,5.57-5.174a28.7,28.7,0,0,1,2.937-3.934,7.143,7.143,0,0,1,6.522-2.633,4.95,4.95,0,0,1,3.145,1.811c.161.208-.041.6-.451.873s-.872.328-1.032.121a4.268,4.268,0,0,0-2.7-1.576,4.7,4.7,0,0,0-2.946.464,4.013,4.013,0,0,0-1.786,1.934,5.72,5.72,0,0,0-.346,3.381,6.142,6.142,0,0,0,1.643,3.22,5.048,5.048,0,0,0,2.965,1.47,8.864,8.864,0,0,0,3.167-.295,7.624,7.624,0,0,0,2.564-1.16l.087-.06c1.8-1.22,3.5-3.539,5.021-6.36a50.375,50.375,0,0,1,1.2-9.458C907.6,722.42,903.6,721.486,901.205,719.814Zm54.4,2.958a5.883,5.883,0,0,1,2.188,1.879,10.52,10.52,0,0,0,1.312-.91,7.9,7.9,0,0,0,1.875-2.137c.4-.688,1.472-3.03-.1-3a2.41,2.41,0,0,0-2.114,1.356,7.642,7.642,0,0,0-2.468-1.1,1.716,1.716,0,0,0-2.028,1.155C953.821,721.458,954.5,722.079,955.607,722.772Zm-.5.8c-1.6-1-3.053-2.311-2.4-4.4.533-1.718,2.479-1.936,3.941-1.349a4.563,4.563,0,0,1,1.023.57,3.283,3.283,0,0,1,2.361-1.042,3.458,3.458,0,0,1,1.544.341,3.063,3.063,0,0,1,1.371,1.222c.469.816.473,2.031-.442,3.625a8.366,8.366,0,0,1-1.989,2.279,12,12,0,0,1-2.926,1.733c-.63.268-.4-.361-.589-.779A4.87,4.87,0,0,0,955.107,723.576Zm-69.1.647a1.369,1.369,0,1,1-1.37,1.369A1.369,1.369,0,0,1,886.01,724.223Zm-32.377-7.589a1.188,1.188,0,0,1,.918-.79c.457-.1.785.083.734.415a49.21,49.21,0,0,0-.54,11.258,27.074,27.074,0,0,0,3.4,11.942c3.086,5.086,6.758,6.255,10.9,1.842a45.342,45.342,0,0,0,5.177-7.321c.791-1.306,1.612-2.709,2.467-4.169,6.923-11.828,16.08-27.471,34.288-34.762.455-.182.874-.089.937.208s-.254.685-.708.867c-17.339,6.943-26.273,22.2-33.027,33.743-.854,1.459-1.674,2.86-2.48,4.19a46.986,46.986,0,0,1-5.43,7.652c-4.857,5.177-9.927,4.807-13.687-1.391a27.727,27.727,0,0,1-3.489-12.236A50.052,50.052,0,0,1,853.633,716.634Z" transform="translate(6.861 -2)" fill="#141515"/></g></svg>