<svg xmlns="http://www.w3.org/2000/svg" width="246.455" height="130.879" viewBox="0 0 246.455 130.879"><g transform="translate(-741.036 -4122.912)"><path d="M952.716,4123.623c.213,7.606,4.478,11.587,11.8,11.587,7.535,0,11.658-3.981,11.942-11.587-2.346-.284-4.62-.569-7.037-.711-.427,2.844-2.2,3.768-5.047,3.768s-4.478-1.28-4.621-3.768Zm-7.961,64.118h-3.839v-49.9h13.008v24.311l25.946-24.525h4.052V4187.6H970.914v-25.662Zm-14.5-49.9H917.316V4187.6h12.937Zm-37.39,26.3c6.966,0,7.322,11.942,0,12.013-3.057.143-6.184,0-9.17,0v-12.013Zm-9.17-26.3H871.04V4187.6h21.823c23.813-.142,23.813-34.9,0-34.9h-9.17ZM860.378,4187.6V4137.84H847.369v17.984H831.943V4137.84H818.935V4187.6h13.008v-19.9h15.426v19.9Zm-87.435-24.88c0-8.861,5.971-13.292,12.369-13.292,6.255,0,12.582,4.36,12.582,13.292,0,9.1-6.184,13.649-12.44,13.649C779.128,4176.368,772.943,4171.818,772.943,4162.719Zm37.959,0c0-16.989-12.653-25.59-25.306-25.732-11.018-.071-22.036,6.113-24.95,18.837h-6.824v-17.913H740.813V4187.6h13.009v-19.975h6.539c2.062,13.862,13.435,20.9,24.951,21.042C798.036,4188.736,810.9,4180.064,810.9,4162.719Z" transform="translate(2)" fill="#141515"/><path d="M958.474,4223.722v-14.288h9.169c3.555,0,5.4,3.483,5.4,7.037,0,3.625-1.99,7.251-5.4,7.251Zm.213,24.239v-12.937h8.956c11.8,0,17.843-9.1,17.843-18.2.213-9.384-5.9-18.7-17.843-18.7-7.392-.072-14.572,0-21.964,0v49.829ZM936.011,4198.2H904.947v49.758h31.7v-11.87h-18.7v-8.1H934.59v-11.373H917.956V4209.5h18.055Zm-89.922,38.74v16.848h9.881v-5.83h29.713v5.83H896.2v-16.848h-4.976V4198.2H856.894l-3.767,32.414c-.569,4.62-1.351,6.255-5.189,6.326Zm22.108-27.58h10.094v27.865H863.647c1.564-1.28,2.133-4.194,2.275-6.184ZM825.688,4222.3v25.661H838.7v-49.972h-4.052L808.7,4222.513V4198.2H795.69v49.9h3.839Zm-64.4-12.511h10.8v38.172h12.938V4198.2H749.912l-3.483,33.978c-.569,5.331-1.493,6.682-7.179,6.184l-.214,9.312c14.288,1.991,19.051-.639,20.33-15.069Z" transform="translate(2)" fill="#141515"/></g></svg>