<svg xmlns="http://www.w3.org/2000/svg" width="28.347" height="28.346" viewBox="0 0 28.347 28.346"><path d="M1461.068,47.175h17.008a5.686,5.686,0,0,1,5.669,5.669V69.853a5.685,5.685,0,0,1-5.669,5.668h-8.389l4.831,0V63.782l3.246-.012.409-3.886,0-.167a2.267,2.267,0,0,1-.482.016h-2.642l-.481-.005c-.065-.053-.051.007-.044-.288.009-.371-.036-1.919.026-2.032a1.293,1.293,0,0,1,.283-.992,1.312,1.312,0,0,1,.963-.309c.077-.047.155-.027.286-.03.586-.016,1.654.031,2.084-.009l-.005-4.042h-3.748c-.081.034-.971.114-1.177.157a4.435,4.435,0,0,0-2.217,1.072l-.313.311a2.1,2.1,0,0,1-.179.266c-.069.1-.093.176-.171.234l-.012.035a2.616,2.616,0,0,1-.138.3,1.047,1.047,0,0,1-.135.269,3.65,3.65,0,0,1-.15.518,3.278,3.278,0,0,0-.111.522l-.079.5-.039.489c-.023.5-.017,1.033-.014,1.54v1.149c0,.2.037.3-.044.34l-.306.006h-1.586a2,2,0,0,1-.478-.016,7.97,7.97,0,0,0-.014,1.028v1.018c0,.618.044,1.429-.007,2.023l2.407-.015c.078.048.038.254.038.341V69.62c0,1.966-.012,3.936,0,5.9h-8.619a5.686,5.686,0,0,1-5.67-5.668V52.844a5.687,5.687,0,0,1,5.67-5.669" transform="translate(-1455.398 -47.175)" fill="#fff" fill-rule="evenodd"/></svg>