<svg xmlns="http://www.w3.org/2000/svg" width="28.346" height="28.346" viewBox="0 0 28.346 28.346"><g transform="translate(-1390.659 -45.175)"><path d="M1383.8,55.073V67.6a5.957,5.957,0,0,0,.078.914,8.6,8.6,0,0,0,.277,1.222,10.241,10.241,0,0,0,.431,1.092,8.579,8.579,0,0,0,.963,1.53,8.111,8.111,0,0,0,.837.927,8.756,8.756,0,0,0,1.279.972l.642.372a8.788,8.788,0,0,0,1.841.674,8.185,8.185,0,0,0,1.792.215h12.022a7.956,7.956,0,0,0,3.338-.742l1.3-.735a8.693,8.693,0,0,0,.711-.546l.662-.64a9.851,9.851,0,0,0,.774-.991,8.232,8.232,0,0,0,1.179-2.68,7.9,7.9,0,0,0,.225-1.827V55.315a8.279,8.279,0,0,0-2.112-5.41,5.776,5.776,0,0,0-.759-.741c-.051-.041-.076-.073-.129-.114a8.426,8.426,0,0,0-1.691-1.088,8.8,8.8,0,0,0-1.469-.538,7.7,7.7,0,0,0-1.759-.249h-12.53a7.578,7.578,0,0,0-1.722.241c-.137.029-.259.075-.378.107a8.61,8.61,0,0,0-1.406.58l-.61.361a8.208,8.208,0,0,0-2.061,1.888,8.968,8.968,0,0,0-.608.892c-.067.113-.108.2-.171.314a7.846,7.846,0,0,0-.941,3.515m2.184,12.177v-11.8a6.108,6.108,0,0,1,1.571-4.12c.038-.037.063-.06.1-.1l.1-.1c.07-.063.122-.117.19-.185a5.746,5.746,0,0,1,1.608-1.061,6.3,6.3,0,0,1,2.522-.522h11.78a6.27,6.27,0,0,1,2.507.515c.1.045.152.074.257.118a7.178,7.178,0,0,1,.708.417,6.262,6.262,0,0,1,1.362,1.285,6.019,6.019,0,0,1,1.254,3.665V67.315a6.017,6.017,0,0,1-1.076,3.424,6.13,6.13,0,0,1-.878,1,7.912,7.912,0,0,1-.622.5,5.943,5.943,0,0,1-3.424,1.076h-11.956a6.08,6.08,0,0,1-2.2-.423,5.789,5.789,0,0,1-1.839-1.161l-.21-.187a6.064,6.064,0,0,1-1.748-4.295Z" transform="translate(6.861 -2)" fill="#fff" fill-rule="evenodd"/><path d="M1390.327,61.161a7.508,7.508,0,0,0,.846,3.676,7.653,7.653,0,0,0,.926,1.391l.693.718a7.446,7.446,0,0,0,1.039.815c.1.063.184.115.286.177a7.622,7.622,0,0,0,3.623,1.032,7.323,7.323,0,0,0,2.782-.438,5.213,5.213,0,0,0,.659-.268,7.961,7.961,0,0,0,1.439-.877l.375-.309c.245-.216.473-.455.695-.694.049-.053.058-.078.11-.133a7.3,7.3,0,0,0,.768-1.085,7.645,7.645,0,0,0,1.025-3.608,7.33,7.33,0,0,0-.439-2.783,7.5,7.5,0,0,0-1.574-2.594l-.331-.353a9.925,9.925,0,0,0-.9-.737,7.451,7.451,0,0,0-1.5-.819,7.571,7.571,0,0,0-2.7-.567,7.274,7.274,0,0,0-2.739.438,7.613,7.613,0,0,0-1.272.581,8.518,8.518,0,0,0-.833.556,8.719,8.719,0,0,0-1.4,1.4c-.072.09-.131.175-.2.267a7.147,7.147,0,0,0-.683,1.192,7.416,7.416,0,0,0-.707,3.022m13.082.176a5.512,5.512,0,0,1-.966,3.093,5.323,5.323,0,0,1-2.224,1.858,5.4,5.4,0,0,1-2.237.5,5.584,5.584,0,0,1-2.115-.422c-.059-.024-.1-.048-.164-.078l-.339-.169c-.068-.037-.1-.053-.171-.093a4.861,4.861,0,0,1-.889-.656,2,2,0,0,1-.264-.243,6.515,6.515,0,0,1-.664-.858,4.648,4.648,0,0,1-.37-.667,5.537,5.537,0,0,1-.358-3.45,5.461,5.461,0,0,1,.57-1.481,5.914,5.914,0,0,1,.4-.612,5.46,5.46,0,0,1,6.912-1.519c.113.067.215.121.318.189a5.589,5.589,0,0,1,1.115.914c.079.1.154.174.233.274A5.541,5.541,0,0,1,1403.409,61.337Z" transform="translate(6.861 -2)" fill="#fff" fill-rule="evenodd"/><path d="M1405.593,52.558a.989.989,0,0,0,.109.552l.16.238.031.034.021.023a1.126,1.126,0,1,0-.321-.847" transform="translate(6.861 -2)" fill="#fff" fill-rule="evenodd"/></g></svg>