<svg xmlns="http://www.w3.org/2000/svg" width="217.667" height="98.075" viewBox="0 0 217.667 98.075"><g transform="translate(-97.795 -1096.841)"><path d="M125.841,1134.145H136l-17.453,47.439H108.387l-17.454-47.439H101.1l12.372,33.627Z" transform="translate(6.861 -1.723)" fill="#141515" fill-rule="evenodd"/><path d="M161.2,1157.88a25.387,25.387,0,0,0,22.385,24.708l3.427-8.843c-.322.022-.646.032-.973.032a14.065,14.065,0,0,1-10.5-4.62,16.545,16.545,0,0,1,0-22.553,14.05,14.05,0,0,1,10.5-4.6,13.89,13.89,0,0,1,7.1,1.938,19.964,19.964,0,0,1,4.253,3l3.454-8.914a32.407,32.407,0,0,0-4.428-2.6,22.794,22.794,0,0,0-10.383-2.4A25.315,25.315,0,0,0,161.2,1157.88" transform="translate(6.861 -1.723)" fill="#141515" fill-rule="evenodd"/><path d="M145.44,1172.448v-10.513h9.879l3.4-9.136H145.44v-9.5h16.813l3.408-9.158H135.254v47.439h12.752l3.4-9.135Z" transform="translate(6.861 -1.723)" fill="#141515" fill-rule="evenodd"/><path d="M203.8,1143.3H216.6v38.281h5.546l4.617-12.346V1143.3h9.7l3.425-9.158H207.227Z" transform="translate(6.861 -1.723)" fill="#141515" fill-rule="evenodd"/><path d="M263.17,1157.864a15.223,15.223,0,0,1-4.437,11.089,15.2,15.2,0,0,1-21.6,0,15.179,15.179,0,0,1-3.435-5.307l-4.275,11.49c.07.07.141.139.212.208a26.72,26.72,0,0,0,36.6,0,24.212,24.212,0,0,0,0-34.949,25.288,25.288,0,0,0-18.3-7.261q-1.5,0-2.927.139l-3.951,10.618a14.851,14.851,0,0,1,6.878-1.588,14.631,14.631,0,0,1,10.807,4.494,15.153,15.153,0,0,1,4.437,11.067" transform="translate(6.861 -1.723)" fill="#141515" fill-rule="evenodd"/><path d="M269.914,1181.583h9.9v-16.61h8.808l9.124,16.61H308.6l-10.152-17.965.859-.464a8.831,8.831,0,0,0,2.145-1.49,19.036,19.036,0,0,0,2.473-2.608,14.248,14.248,0,0,0,2.1-4.01,15.716,15.716,0,0,0,.893-5.318,14.85,14.85,0,0,0-4.619-11.067,15.975,15.975,0,0,0-11.665-4.516h-3.066l-3.408,9.157h6.147a6.328,6.328,0,0,1,4.618,1.819,6.247,6.247,0,0,1,1.829,4.607,5.83,5.83,0,0,1-1.829,4.348,6.431,6.431,0,0,1-4.618,1.772l-10.815,0Z" transform="translate(6.861 -1.723)" fill="#141515" fill-rule="evenodd"/><path d="M178.138,1196.639l32.091-82.829-5.242-2.031,13.8-13.214,1.3,19.064-5.6-2.167-31.451,81.178Z" transform="translate(6.861 -1.723)" fill="#eb520b" fill-rule="evenodd"/><path d="M308.505,1185.526h-6.677V1196.5H308.6v-1.661h-4.937v-3.2h4.576v-1.614h-4.576v-2.9h4.843Zm-14.529,5.642-4.467-5.673h-.674v11h1.834v-6.865l3.181,4.06h.251l3.166-4.06v6.865H299.1v-11h-.673ZM281.97,1188.3l1.912,4.388h-3.84Zm2.492,5.924,1.082,2.273h1.9v-.235l-5.047-10.815h-.846l-5.078,10.815v.235h1.912l1.066-2.273ZM265.294,1191a5.378,5.378,0,0,0,5.533,5.642,4.948,4.948,0,0,0,4.874-3.088,7.322,7.322,0,0,0,.392-2.977h-5.141v1.552h3.417c-.3,2.1-1.661,2.852-3.542,2.852-2.258,0-3.684-1.662-3.684-3.981a3.665,3.665,0,0,1,3.684-3.965,3.136,3.136,0,0,1,3.135,1.786h1.8a4.74,4.74,0,0,0-4.921-3.432A5.4,5.4,0,0,0,265.294,1191Z" transform="translate(6.861 -1.723)" fill="#141515"/></g></svg>